<?xml version="1.0" encoding="UTF-8" standalone="no"?>
<svg width="147px" height="46px" viewBox="0 0 147 46" version="1.1" xmlns="http://www.w3.org/2000/svg" xmlns:xlink="http://www.w3.org/1999/xlink">
    <!-- Generator: sketchtool 41.1 (35376) - http://www.bohemiancoding.com/sketch -->
    <title>3B6BA683-8768-4068-8981-BCE045E421BA</title>
    <desc>Created with sketchtool.</desc>
    <defs>
        <path d="M90.6457858,13.5398742 C90.5141525,13.1950714 90.3671379,12.8416676 90.2088516,12.483764 C90.0351957,12.0911077 89.8751066,11.7661507 89.6960238,11.4005741 C89.3278343,10.6963906 88.9211184,10.0129489 88.4777187,9.3533451 C84.6373168,3.65724682 78.2037712,0.247452052 71.3245613,0.262130098 C64.4453514,0.276808144 58.0264735,3.71402589 54.2105109,9.42646042 C53.7640128,10.0877575 53.358946,10.7759956 52.9976325,11.4872293 C52.813123,11.841974 52.6394671,12.2075506 52.4820913,12.5704192 C52.3318099,12.9106777 52.2000702,13.2287304 52.0822741,13.5398742 L38.630314,13.5398742 L38.630314,25.4874592 L0,25.4874592 L0,41.7353082 L142.73707,41.7353082 L142.73707,25.4874592 L104.106756,25.4874592 L104.106756,13.5398742 L90.6457858,13.5398742 Z M55.6291694,13.5398742 C55.7161863,13.3532159 55.807561,13.1653422 55.9063701,12.9793234 C56.0908795,12.6191628 56.2889559,12.2617101 56.5033125,11.9123813 C56.6389812,11.6849114 56.7746499,11.4628575 56.9265989,11.2435115 C56.978153,11.1649803 57.0324205,11.086449 57.086688,11.0106257 C57.2929045,10.7127485 57.5072611,10.4202872 57.7324712,10.1386578 C58.2024691,9.54040472 58.711904,8.97408515 59.2573877,8.44346555 C65.9805276,1.9087616 76.6894475,1.88717531 83.438982,8.394722 C83.9881716,8.92050357 84.4995526,9.48425602 84.9693253,10.0817903 C85.1972488,10.3525878 85.4116054,10.650465 85.6151085,10.9456343 C85.6720893,11.0214576 85.7236434,11.0999889 85.7779109,11.1785201 C85.9271465,11.3978661 86.0736688,11.622628 86.2093375,11.8500979 C86.4236941,12.1940107 86.6190571,12.5460474 86.8035665,12.8980842 C86.9108244,13.1070756 87.0180822,13.3232632 87.1162915,13.5398742 L55.6291694,13.5398742 Z" id="path-1"></path>
        <mask id="mask-2" maskContentUnits="userSpaceOnUse" maskUnits="objectBoundingBox" x="-1.5" y="-1.5" width="145.73707" height="44.4732253">
            <rect x="-1.5" y="-1.2379171" width="145.73707" height="44.4732253" fill="white"></rect>
            <use xlink:href="#path-1" fill="black"></use>
        </mask>
        <linearGradient x1="49.9902057%" y1="0%" x2="49.9902057%" y2="100%" id="linearGradient-3">
            <stop stop-color="#FFFFFF" offset="0%"></stop>
            <stop stop-color="#FCFDFD" offset="36%"></stop>
            <stop stop-color="#F3F6F9" offset="60%"></stop>
            <stop stop-color="#E4EBF0" offset="81%"></stop>
            <stop stop-color="#CFDCE5" offset="99%"></stop>
            <stop stop-color="#CEDBE4" offset="100%"></stop>
        </linearGradient>
    </defs>
    <g id="1.-Northstar" stroke="none" stroke-width="1" fill="none" fill-rule="evenodd">
        <g id="Northstar_March_Madness" transform="translate(-29.000000, -1009.000000)">
            <g id="Group-3-Copy-3" transform="translate(0.000000, 1001.000000)">
                <g id="March-Madness-Logo" transform="translate(31.000000, 10.000000)">
                    <g id="Asset-1">
                        <g id="Layer_2">
                            <g id="Layer_1-2">
                                <g id="Combined-Shape">
                                    <use fill="#121C23" fill-rule="evenodd" xlink:href="#path-1"></use>
                                    <use stroke="#FFFFFF" mask="url(#mask-2)" stroke-width="3" xlink:href="#path-1"></use>
                                </g>
                                <path d="M91.9833986,20.3098113 L91.9833986,20.2827316 C91.9833986,20.122961 91.9833986,19.9604825 91.9589783,19.7817562 C91.942698,19.4297195 91.9155643,19.0993465 91.8884305,18.8095932 C91.7952335,17.8746293 91.6374829,16.9472004 91.4163033,16.033919 C91.2220022,15.2215993 90.9773273,14.4221098 90.6836922,13.6400693 C90.5425967,13.2636608 90.3825076,12.8764204 90.2088516,12.483764 C90.0351957,12.0911077 89.8751066,11.7661507 89.6960238,11.4005741 C89.3278343,10.6963906 88.9211184,10.0129489 88.4777187,9.3533451 C84.6373168,3.65724682 78.2037712,0.247452052 71.3245613,0.262130098 C64.4453514,0.276808144 58.0264735,3.71402589 54.2105109,9.42646042 C53.7640128,10.0877575 53.358946,10.7759956 52.9976325,11.4872293 C52.813123,11.841974 52.6394671,12.2075506 52.4820913,12.5704192 C52.3002952,12.9820314 52.1456329,13.3611479 52.0099642,13.7348484 C51.7159956,14.5402245 51.4731205,15.3632712 51.2827798,16.1991055 C51.0843375,17.0583593 50.9411411,17.9293957 50.8540666,18.8068853 C50.8242195,19.1074705 50.7997991,19.4215956 50.7808055,19.7736323 C50.7808055,19.9388187 50.7808055,20.1040052 50.7618118,20.2691917 L50.7618118,20.3098113 L50.7618118,20.8189106 L50.7618118,20.8514063 L54.0178614,20.8514063 L54.0178614,20.8189106 L54.0178614,20.3802186 C54.0178614,20.2448199 54.0178614,20.0850494 54.0341416,19.9442347 C54.0504218,19.6490654 54.0694155,19.3863919 54.0965492,19.1318422 C54.1696501,18.3917654 54.291106,17.6572435 54.4601414,16.9329667 C54.6210402,16.2309337 54.8267723,15.5398918 55.0760774,14.8640739 C55.1927525,14.5526568 55.3202812,14.2304078 55.4749435,13.881079 C55.507504,13.8052557 55.5400645,13.7321404 55.5753384,13.6563171 L55.5753384,13.6563171 C55.6784466,13.4315552 55.7869816,13.2040853 55.9063701,12.9793234 C56.0908795,12.6191628 56.2889559,12.2617101 56.5033125,11.9123813 C56.6389812,11.6849114 56.7746499,11.4628575 56.9265989,11.2435115 C56.978153,11.1649803 57.0324205,11.086449 57.086688,11.0106257 C57.2929045,10.7127485 57.5072611,10.4202872 57.7324712,10.1386578 C58.2024691,9.54040472 58.711904,8.97408515 59.2573877,8.44346555 C65.9805276,1.9087616 76.6894475,1.88717531 83.438982,8.394722 C83.9881716,8.92050357 84.4995526,9.48425602 84.9693253,10.0817903 C85.1972488,10.3525878 85.4116054,10.650465 85.6151085,10.9456343 C85.6720893,11.0214576 85.7236434,11.0999889 85.7779109,11.1785201 C85.9271465,11.3978661 86.0736688,11.622628 86.2093375,11.8500979 C86.4236941,12.1940107 86.6190571,12.5460474 86.8035665,12.8980842 C86.9175283,13.1201381 87.03149,13.350316 87.1345982,13.5804938 C87.1698721,13.6536091 87.205146,13.7294324 87.2377065,13.8025478 C87.3842287,14.1302127 87.5090439,14.4524617 87.6365725,14.7720028 C88.1592246,16.1669662 88.5002794,17.6231205 88.6513746,19.1047625 C88.6730816,19.3457723 88.697502,19.6463575 88.7110689,19.917155 L88.7110689,19.9496506 C88.7110689,20.0877574 88.7246357,20.2204481 88.7300625,20.3666788 C88.7354892,20.5129094 88.7300625,20.6564321 88.7300625,20.8026627 L88.7300625,20.8514063 L91.986112,20.8514063 L91.986112,20.8107866 C91.9833986,20.6428922 91.9833986,20.4749978 91.9833986,20.3098113 Z" id="Shape" fill="#121C23"></path>
                                <path d="M90.3553739,20.8514063 L52.3681296,20.8514063 C52.3669365,19.4086043 52.5308,17.9703834 52.856537,16.5646821 C52.899951,16.3724159 52.9487918,16.1801497 53.0003459,15.9878835 C53.0519,15.7956172 53.0844605,15.6818823 53.1305879,15.5275277 C53.1468681,15.4652443 53.1658617,15.4002529 53.1848554,15.3379695 C53.2174158,15.2242346 53.2526897,15.1132076 53.290677,15.0021806 C53.3666514,14.7665868 53.4480527,14.533701 53.5321673,14.3035231 C53.6162819,14.0733452 53.6786895,13.9135747 53.7600908,13.7213085 C53.819785,13.5723699 53.8821926,13.4234313 53.9473136,13.2772006 C53.9473136,13.2609528 53.9473136,13.2474129 53.9663072,13.2311651 L53.9663072,13.2311651 C54.0422817,13.0551467 54.123683,12.8791283 54.2077976,12.6895701 C54.2919122,12.5000119 54.3570332,12.380861 54.435721,12.2292144 L54.435721,12.2102586 C54.5171223,12.053196 54.6012369,11.8961335 54.6853515,11.7417789 C54.7477591,11.628044 54.8128801,11.514309 54.8780011,11.4005741 C54.9431221,11.2868391 54.9946762,11.2001839 55.0570838,11.0999889 C55.1194914,10.9997938 55.1954659,10.867103 55.2714404,10.7506601 C55.3474149,10.6342172 55.4505231,10.4798626 55.5427779,10.328216 C59.0567647,5.06522165 64.9692874,1.89791022 71.3062889,1.88377507 C77.6432904,1.86963993 83.5699401,5.01054321 87.1074645,10.2578087 L87.1074645,10.2740565 C87.2024326,10.4148712 87.2946873,10.544854 87.3788019,10.6992086 C87.4629166,10.8535632 87.5280375,10.9348024 87.6012987,11.0539533 C87.6745598,11.1731042 87.7396808,11.2868391 87.8075151,11.40599 C87.8753495,11.5251409 87.9404705,11.6334599 88.0028781,11.7499028 C88.0652857,11.8663457 88.1439736,12.0207003 88.2118079,12.1425592 L88.2118079,12.1425592 L88.2443684,12.2075506 C88.3818461,12.4783481 88.5148014,12.7545615 88.6432345,13.0361909 C88.6432345,13.0659786 88.6703682,13.0930584 88.6812217,13.1228461 L88.6812217,13.1228461 L88.7137822,13.1986694 C88.7761899,13.3367761 88.8358841,13.4694669 88.892865,13.6184055 L88.9254255,13.6942288 C88.9878331,13.8485833 89.0502407,14.0056459 89.1072216,14.1627084 L89.1072216,14.1816642 L89.1072216,14.1816642 C89.1642024,14.3333108 89.2211833,14.4876654 89.2727374,14.64202 L89.3107247,14.747631 C89.3677055,14.9182334 89.4246864,15.0915438 89.4762405,15.2648542 C89.5277946,15.4381646 89.6010557,15.6791743 89.6580366,15.8903964 C89.7014506,16.0528749 89.7421512,16.2180613 89.7828518,16.3832478 C90.1512925,17.8445671 90.3434949,19.344581 90.3553739,20.8514063 Z" id="Shape" fill="#EF642D"></path>
                                <path d="M88.7273491,13.1390939 C88.5772091,12.8069157 88.4198333,12.4792507 88.2552219,12.1560991 C87.9175621,11.5032331 87.542495,10.8703237 87.1318849,10.2605167 C82.9071606,7.61211728 77.3230357,6.15251884 71.3943122,6.15251884 C65.4655887,6.15251884 59.8841772,7.61482525 55.6567396,10.2659326 L55.5563447,10.330924 C55.1459076,10.9398091 54.7725947,11.5728163 54.4384344,12.2265064 C54.2702052,12.5514634 54.1128295,12.8818363 53.9663072,13.2176252 C57.8030189,9.7622493 64.1767358,7.50109031 71.3915989,7.50109031 C78.5521944,7.51463018 84.8797839,9.74870942 88.7273491,13.1390939 Z" id="Shape" fill="#F37456"></path>
                                <path d="M57.1111084,12.5677112 C60.9098328,10.1819854 65.9811299,8.8686176 71.399739,8.8686176 C76.818348,8.8686176 81.8950719,10.1819854 85.6910829,12.5677112 C87.3250661,13.546745 88.7370129,14.8544389 89.8371193,16.4076196 C89.6574773,15.6576318 89.4309188,14.9196164 89.1587757,14.1979121 C89.0258203,13.8404594 88.8874382,13.4857147 88.7246357,13.1390939 C84.8797839,9.74870942 78.5521944,7.51463018 71.399739,7.51463018 C64.1848759,7.51463018 57.811159,9.77578917 53.9744474,13.2311651 C53.819785,13.5832018 53.6732628,13.9406545 53.5403074,14.314355 C53.2677607,15.0531731 53.042104,15.8083873 52.8646772,16.575514 C53.8062181,15.0996677 55.2415933,13.7402643 57.1111084,12.5677112 Z" id="Shape" fill="#DC4D0E"></path>
                                <path d="M71.399739,7.98852578 C78.9185,7.98852578 85.5092869,10.4798626 89.1587757,14.1979121 C89.0258203,13.8404594 88.8874382,13.4857147 88.7246357,13.1390939 C88.5618333,12.7924731 88.4180244,12.4783481 88.2525086,12.1560991 C84.2692747,9.03651204 78.194029,7.04073458 71.399739,7.04073458 C64.5484681,7.04073458 58.4270951,9.07171571 54.4465745,12.2400463 C54.2783453,12.5650033 54.1209696,12.8953762 53.9744474,13.2311651 C53.819785,13.5832018 53.6732628,13.9406545 53.5403074,14.314355 C57.1599491,10.5258982 63.8104302,7.98852578 71.399739,7.98852578 Z" id="Shape" fill="#121C23"></path>
                                <path d="M90.493756,20.3287671 C90.493756,20.1744126 90.493756,20.020058 90.472049,19.8440396 C90.4557687,19.5244986 90.4313484,19.2130815 90.406928,18.9504079 C90.3199821,18.0839814 90.1740268,17.2244683 89.9700747,16.3778318 C89.7880669,15.6225652 89.5597128,14.8791783 89.2863043,14.1518765 C89.1587757,13.8079637 89.0149668,13.4478031 88.849451,13.0849344 C88.6839351,12.7220658 88.5401263,12.4187726 88.371897,12.0938156 C85.0840853,5.74583992 78.5218751,1.75930924 71.3617517,1.76018365 C64.9632608,1.75476436 58.9870006,4.94687495 55.442383,10.2632246 C55.0325954,10.8813623 54.6601989,11.5233947 54.3271861,12.1858868 C54.1589568,12.5108438 53.9988677,12.8466326 53.8496321,13.1851295 C53.6814029,13.5669539 53.5403074,13.9216987 53.4127788,14.2683194 C53.1389187,15.0127119 52.9114653,15.7733002 52.7317218,16.5457263 C52.5489407,17.3400843 52.4157293,18.1449971 52.3328557,18.9558239 C52.305722,19.2266214 52.284015,19.5272066 52.2650214,19.8494556 C52.2650214,20.0038101 52.2514545,20.1635807 52.2460277,20.3341831 C52.240601,20.5047855 52.2460277,20.6591401 52.2460277,20.8189106 L52.2460277,20.8514063 L52.5173652,20.8514063 L52.5173652,20.8189106 L52.5173652,20.3287671 C52.5173652,20.1581647 52.5173652,20.01735 52.5363588,19.8629955 C52.5526391,19.5461624 52.5743461,19.2591171 52.6041932,18.9829036 C52.6832676,18.1799758 52.8146926,17.3830449 52.9976325,16.5971778 C53.0247663,16.4753189 53.0546134,16.356168 53.0871739,16.2370171 C53.2451068,15.5948303 53.4389646,14.9619779 53.667836,14.3414348 C53.7031099,14.2466556 53.7383838,14.1518765 53.776371,14.0543894 C53.8740525,13.8025478 53.9798741,13.5452902 54.0992626,13.2744927 C54.1372498,13.1851295 54.1779505,13.0930584 54.2213644,13.0036952 C54.3298994,12.7626854 54.4465745,12.5243836 54.5686764,12.2914978 C54.6120904,12.2021346 54.6582178,12.1154794 54.7070585,12.0207003 C55.0008364,11.4617829 55.3251198,10.9193727 55.6784466,10.3959154 C55.7381408,10.3092602 55.7951217,10.222605 55.8575293,10.1251179 C59.3753423,5.05784563 65.1572921,2.03186289 71.3342427,2.02538173 C77.5111933,2.01890058 83.2995056,5.03274325 86.8279869,10.0926222 C86.8903945,10.1765694 86.9473754,10.2605167 87.0043563,10.3444639 C87.3558362,10.8690884 87.6800601,11.4113991 87.9757444,11.9692488 C88.0245851,12.055904 88.0707125,12.1425592 88.1168398,12.2400463 C88.2362283,12.4702241 88.3529034,12.705818 88.458725,12.9441197 C88.5048524,13.0334829 88.545553,13.1255541 88.5862536,13.2149172 C88.7020243,13.4748828 88.8105593,13.7321404 88.9118586,13.98669 C88.9498458,14.0814692 88.9851197,14.1735403 89.0176802,14.2574875 C89.2458218,14.861075 89.4405736,15.4767125 89.6010557,16.1016184 C89.6336162,16.2171587 89.6634633,16.3336016 89.6905971,16.4509472 C89.8927286,17.2858245 90.03688,18.13363 90.1220237,18.9883196 C90.146444,19.2591171 90.1735778,19.5515783 90.189858,19.8927832 C90.189858,20.0444298 90.2034249,20.1960764 90.2088516,20.345015 C90.2142784,20.4939536 90.2088516,20.664556 90.2088516,20.8216185 L90.2088516,20.8514063 L90.4801891,20.8514063 L90.4801891,20.8107866 C90.4991827,20.6510161 90.4964693,20.4912456 90.493756,20.3287671 Z" id="Shape" fill="#121C23"></path>
                                <rect id="Rectangle-path" fill="#121C23" x="0" y="25.4874592" width="142.73707" height="16.247849"></rect>
                                <rect id="Rectangle-path" fill="#F7FAFC" x="52.197187" y="15.1321634" width="50.314105" height="10.3580038"></rect>
                                <path d="M45.4218906,18.0134486 C44.8103338,18.0044923 44.2218616,18.2462646 43.7938659,18.6823184 C43.1325945,19.3399942 42.9338077,20.3306543 43.2903214,21.1917478 C43.6468351,22.0528413 44.4883254,22.6145138 45.4218906,22.6145138 C46.3554559,22.6145138 47.1969462,22.0528413 47.5534599,21.1917478 C47.9099736,20.3306543 47.7111868,19.3399942 47.0499154,18.6823184 C46.6219197,18.2462646 46.0334475,18.0044923 45.4218906,18.0134486 L45.4218906,18.0134486 Z" id="Shape" fill="#F7FAFC"></path>
                                <path d="M48.4852906,17.2443838 C47.2436001,16.0037839 45.375079,15.6324235 43.7519058,16.3036445 C42.1287325,16.9748654 41.0709685,18.5563145 41.0723512,20.3098113 C41.0726712,22.2699818 42.3915892,23.9857795 44.2885549,24.4938128 C46.1855206,25.0018461 48.1879627,24.1755539 49.1715436,22.4788854 C50.1551244,20.7822169 49.8748149,18.6378455 48.4880039,17.2497997 L48.4852906,17.2443838 Z M47.9154819,22.1512342 C47.1765571,22.6475634 46.304411,22.9090642 45.4137505,22.9013432 C44.5198788,22.9078827 43.6446066,22.6465782 42.9011657,22.1512342 C42.2155561,21.6965202 41.6720506,21.0583744 41.3328351,20.3098113 C41.670655,19.5639748 42.2147385,18.9298477 42.9011657,18.4819283 C43.6421275,17.9801364 44.5183254,17.7147783 45.4137505,17.7209874 C46.306007,17.7133644 47.1791541,17.9789458 47.9154819,18.4819283 C48.6077319,18.9269614 49.1569158,19.5615435 49.4973793,20.3098113 C49.1551731,21.0598434 48.6065985,21.6974778 47.9154819,22.1485262 L47.9154819,22.1512342 Z" id="Shape" fill="#F7FAFC"></path>
                                <path d="M38.630314,13.5398742 L38.630314,27.0797484 L104.106756,27.0797484 L104.106756,13.5398742 L38.630314,13.5398742 Z M48.4852906,23.3752388 C47.2436001,24.6158387 45.375079,24.9871991 43.7519058,24.3159781 C42.1287325,23.6447572 41.0709685,22.0633081 41.0723512,20.3098113 C41.0775847,18.3509943 42.3990243,16.6393196 44.2955324,16.1347905 C46.1920404,15.6302615 48.1918412,16.4583848 49.1733339,18.1547024 C50.1548267,19.85102 49.8738552,21.9935556 48.4880039,23.3806548 L48.4852906,23.3752388 Z M102.511292,25.4901672 L52.197187,25.4901672 L52.197187,15.1321634 L102.511292,15.1321634 L102.511292,25.4901672 Z" id="Shape" fill="#121C23"></path>
                                <path d="M45.4137505,17.7209874 C44.5183007,17.7146073 43.642053,17.9799806 42.9011657,18.4819283 C42.2147385,18.9298477 41.670655,19.5639748 41.3328351,20.3098113 C41.6719256,21.0584533 42.2154579,21.6966305 42.9011657,22.1512342 C43.6446066,22.6465782 44.5198788,22.9078827 45.4137505,22.9013432 C46.3044352,22.909234 47.1766306,22.6477184 47.9154819,22.1512342 C48.6060881,21.6991797 49.1537546,21.0605678 49.4946659,20.3098113 C49.1550676,19.5618167 48.6068302,18.9272398 47.9154819,18.4819283 C47.1791541,17.9789458 46.306007,17.7133644 45.4137505,17.7209874 Z M47.0417753,21.9318882 C46.2662481,22.7027439 45.0532618,22.8199139 44.1439998,22.2118026 C43.2347378,21.6036912 42.8821584,20.4394762 43.3017019,19.4305399 C43.7212454,18.4216035 44.7961941,17.8486337 45.8697108,18.061738 C46.9432276,18.2748423 47.7166583,19.2147348 47.7174056,20.3071033 C47.7291282,20.9182194 47.4876196,21.5070724 47.0499154,21.9345962 L47.0417753,21.9318882 Z" id="Shape" fill="#121C23"></path>
                                <path d="M62.678953,20.2556518 C63.2855656,20.3100698 63.7335135,20.8443567 63.6801883,21.4498687 C63.6801883,22.3110047 63.0968127,22.9067592 61.9626222,22.9067592 L59.2492476,22.9067592 L59.2492476,17.7128634 L61.9436285,17.7128634 C62.8987364,17.7128634 63.5200992,18.2788302 63.5200992,19.1318422 C63.5517021,19.6569932 63.1843276,20.1225722 62.6653862,20.2150322 L62.678953,20.2556518 Z M59.2601011,17.7128634 L61.954482,17.7128634 L59.2601011,17.7128634 Z M60.5408139,19.8602875 L61.6587242,19.8602875 C61.8220792,19.8766416 61.9846087,19.8222209 62.1050258,19.7108495 C62.225443,19.5994781 62.2921593,19.4418741 62.2882271,19.2780729 C62.2886532,19.1271101 62.2259262,18.9828205 62.1151724,18.8799987 C62.0044185,18.7771769 61.8556899,18.7251551 61.7048516,18.7364779 L60.5381005,18.7364779 L60.5408139,19.8602875 Z M61.7374121,21.8777287 C61.9502324,21.8958661 62.1554731,21.7942613 62.269774,21.6141818 C62.384075,21.4341023 62.3884278,21.205496 62.2810643,21.0212127 C62.1737009,20.8369294 61.9724762,20.7276162 61.7591191,20.7376713 L60.5381005,20.7376713 L60.5381005,21.8777287 L61.7374121,21.8777287 Z" id="Shape" fill="#121C23"></path>
                                <path d="M86.0139745,20.3098113 C86.0382343,21.434286 85.3781961,22.4615751 84.3441289,22.9087733 C83.3100617,23.3559714 82.1076586,23.1341236 81.302142,22.3475154 C80.4966254,21.5609073 80.2482259,20.366008 80.6737104,19.3245128 C81.099195,18.2830177 82.1139277,17.6020971 83.2409057,17.6018365 C83.9708238,17.5858063 84.6764167,17.8640175 85.1982578,18.3736092 C85.7200989,18.8832008 86.0141512,19.5811694 86.0139745,20.3098113 Z M84.7305483,20.3098113 C84.7052611,19.4937159 84.0263312,18.8500762 83.2083886,18.8667723 C82.390446,18.8834684 81.7384541,19.5542752 81.7466238,20.3707201 C81.7547934,21.1871649 82.4200788,21.8448429 83.2381923,21.845233 C83.6425883,21.8469488 84.0302405,21.6842064 84.3118096,21.3945119 C84.5933787,21.1048175 84.7445732,20.7131634 84.7305483,20.3098113 Z" id="Shape" fill="#121C23"></path>
                                <polygon id="Shape" fill="#121C23" points="94.333181 18.8285491 94.333181 22.9094671 93.0687485 22.9094671 93.0687485 18.8285491 91.3837428 18.8285491 91.3837428 17.7128634 96.0290401 17.7128634 96.0290401 18.8285491"></polygon>
                                <path d="M78.172322,17.7128634 L75.608183,17.7128634 L75.608183,22.9094671 L76.8888958,22.9094671 L76.8888958,21.203443 L78.172322,21.203443 C79.3444998,21.203443 80.0716842,20.5020775 80.0716842,19.4595072 C80.0716842,18.4169369 79.3444998,17.7128634 78.172322,17.7128634 Z M78.0257997,20.1094212 L76.8916092,20.1094212 L76.8916092,18.8068853 L78.0257997,18.8068853 C78.5169205,18.8068853 78.8181051,19.0587269 78.8235319,19.4567992 C78.8289586,19.8548715 78.5142072,20.1094212 78.0230864,20.1094212 L78.0257997,20.1094212 Z" id="Shape" fill="#121C23"></path>
                                <path d="M91.305055,22.9094671 L89.7285843,21.1222038 C90.506832,20.9536211 91.0486546,20.2479039 91.0092971,19.4540913 C91.0092971,18.4115209 90.2712593,17.7074475 89.1099349,17.7074475 L86.5457959,17.7074475 L86.5457959,22.9094671 L87.8265088,22.9094671 L87.8265088,21.203443 L88.2660754,21.203443 L89.769285,22.9094671 L91.305055,22.9094671 Z M87.8156553,18.8068853 L88.9498458,18.8068853 C89.4409666,18.8068853 89.7421512,19.0587269 89.747578,19.4567992 C89.7530047,19.8548715 89.4382533,20.1067132 88.9498458,20.1067132 L87.8156553,20.1067132 L87.8156553,18.8068853 Z" id="Shape" fill="#121C23"></path>
                                <path d="M57.8627131,21.2955141 C57.5307306,21.6415435 57.0754155,21.8429625 56.5955672,21.8560649 C56.2009879,21.849357 55.8262213,21.6823157 55.5578673,21.3935403 C55.2895133,21.1047649 55.1507921,20.7192428 55.1737589,20.3260592 L55.1737589,20.3098113 C55.1507921,19.9166276 55.2895133,19.5311056 55.5578673,19.2423302 C55.8262213,18.9535548 56.2009879,18.7865135 56.5955672,18.7798055 C57.0754155,18.792908 57.5307306,18.9943269 57.8627131,19.3403563 L57.9115539,19.3863919 L58.7255663,18.4629725 L58.6821523,18.4196449 C58.1383572,17.8686294 57.386053,17.5734235 56.6118475,17.6072524 C55.8839911,17.5879517 55.1798089,17.8661523 54.6624,18.3774188 C54.1449912,18.8886853 53.859243,19.5886633 53.8713391,20.3152273 L53.8713391,20.3152273 C53.859243,21.0417912 54.1449912,21.7417692 54.6624,22.2530357 C55.1798089,22.7643022 55.8839911,23.0425029 56.6118475,23.0232021 C57.386053,23.0570311 58.1383572,22.7618252 58.6821523,22.2108096 L58.7255663,22.167482 L57.9115539,21.2440626 L57.8627131,21.2955141 Z" id="Shape" fill="#121C23"></path>
                                <path d="M67.0420594,19.8359157 L65.9567096,19.586782 C65.6311046,19.5136667 65.5388499,19.3593121 65.5388499,19.1480901 C65.5388499,18.8529208 65.8101873,18.622743 66.2416139,18.625451 C66.661243,18.6140159 67.0314789,18.8976376 67.1288874,19.3051526 L68.3499059,18.8989564 C68.0785685,18.086564 67.3106835,17.6018365 66.2633209,17.5937125 C65.0450157,17.5937125 64.2011562,18.2084228 64.1930161,19.2184974 C64.1930161,20.1635807 64.8360858,20.556237 65.5822639,20.7322554 L66.6676137,20.9732651 C67.039346,21.0545044 67.147881,21.200735 67.1451676,21.4336209 C67.1451676,21.7504539 66.8521232,21.9752158 66.3718559,21.9752158 C65.9110884,22.0031249 65.4972942,21.6953988 65.3923276,21.2467706 L64.0926212,21.6637987 C64.3341115,22.5276427 65.2295252,23.0177861 66.3067349,23.0177861 C67.4653458,23.0177861 68.4557275,22.4599433 68.4638677,21.3496736 C68.466581,20.5345732 67.9401864,20.0390138 67.0420594,19.8359157 Z" id="Shape" fill="#121C23"></path>
                                <path d="M73.5324514,19.8359157 L72.4471016,19.586782 C72.1214966,19.5136667 72.0292419,19.3593121 72.0292419,19.1480901 C72.0292419,18.8529208 72.3005793,18.622743 72.7320059,18.625451 C73.151635,18.6140159 73.521871,18.8976376 73.6192794,19.3051526 L74.840298,18.8989564 C74.5689605,18.086564 73.8010755,17.6018365 72.7537129,17.5937125 C71.5354077,17.5937125 70.6915482,18.2084228 70.6834081,19.2184974 C70.6834081,20.1635807 71.3264779,20.556237 72.0726559,20.7322554 L73.1580057,20.9732651 C73.529738,21.0545044 73.638273,21.200735 73.6355596,21.4336209 C73.6355596,21.7504539 73.3425152,21.9752158 72.8622479,21.9752158 C72.3976481,22.015468 71.9728455,21.712149 71.8610127,21.2603105 L70.5748731,21.6637987 C70.8190768,22.5276427 71.7117771,23.0177861 72.7889868,23.0177861 C73.9475977,23.0177861 74.9379794,22.4599433 74.9461196,21.3496736 C74.9488329,20.5345732 74.4251516,20.0390138 73.5324514,19.8359157 Z" id="Shape" fill="#121C23"></path>
                                <path d="M99.1955483,19.8359157 L98.1101984,19.586782 C97.7845935,19.5136667 97.6923388,19.3593121 97.6923388,19.1480901 C97.6923388,18.8529208 97.9636762,18.622743 98.3951028,18.625451 C98.8147319,18.6140159 99.1849678,18.8976376 99.2823763,19.3051526 L100.503395,18.8989564 C100.232057,18.086564 99.4641724,17.6018365 98.4168098,17.5937125 C97.1985046,17.5937125 96.3546451,18.2084228 96.346505,19.2184974 C96.346505,20.1635807 96.9895747,20.556237 97.7357528,20.7322554 L98.8211026,20.9732651 C99.1928349,21.0545044 99.3013699,21.200735 99.2986565,21.4336209 C99.2986565,21.7504539 99.0056121,21.9752158 98.5253448,21.9752158 C98.060745,22.015468 97.6359424,21.712149 97.5241095,21.2603105 L96.2461101,21.6637987 C96.4903138,22.5276427 97.3830141,23.0177861 98.4602238,23.0177861 C99.6188347,23.0177861 100.609216,22.4599433 100.617357,21.3496736 C100.62007,20.5345732 100.096389,20.0390138 99.1955483,19.8359157 Z" id="Shape" fill="#121C23"></path>
                                <path d="M16.551585,38.851315 L12.2508863,38.851315 L12.2508863,36.9936443 L13.0431917,36.9340688 L13.0431917,31.0550555 L10.8887722,38.8486071 L8.41146123,38.8486071 L6.18378069,31.0685953 L6.18378069,36.9313609 L7.01950007,36.9909363 L7.01950007,38.8486071 L2.71337459,38.8486071 L2.71337459,36.9909363 L3.76887731,36.917821 L3.76887731,30.5432482 L2.77306883,30.4701329 L2.77306883,28.6124622 L8.14012377,28.6124622 L9.44525695,34.228802 C9.56193206,34.6972816 9.66504029,35.1657613 9.76814853,35.6315329 L10.1208872,34.228802 L11.3961733,28.6124622 L16.551585,28.6124622 L16.551585,30.4701329 L15.5693434,30.5432482 L15.5693434,36.917821 L16.5651519,36.9909363 L16.551585,38.851315 Z" id="Shape" fill="url(#linearGradient-3)"></path>
                                <path d="M28.4904332,38.851315 L24.1490339,38.851315 L24.1490339,36.9936443 L24.8952119,36.9503167 L24.6021674,36.1027206 L21.2647167,36.1027206 L20.9933792,36.9367768 L21.7856846,36.9963523 L21.7856846,38.854023 L17.6369348,38.854023 L17.6369348,36.9963523 L18.5296351,36.9367768 L20.8142965,30.562204 L19.6556855,30.4755489 L19.6556855,28.6178781 L24.5750337,28.6178781 L27.5597457,36.9394848 L28.4985733,36.9990602 L28.4904332,38.851315 Z M23.6063589,33.2214353 C23.3567285,32.4469545 23.1233783,31.6562259 22.9171618,30.8384175 C22.7509408,31.6465588 22.5306644,32.4426803 22.2578118,33.2214353 L21.8643725,34.3912805 L24.0187919,34.3912805 L23.6063589,33.2214353 Z" id="Shape" fill="url(#linearGradient-3)"></path>
                                <path d="M39.4063392,38.851315 L36.1095891,38.851315 L34.6877808,35.3851072 C34.4815643,34.9030877 34.2916281,34.7866448 33.4857558,34.7866448 L33.1927114,34.7866448 L33.1927114,36.9367768 L34.1586727,36.9963523 L34.1586727,38.854023 L29.575783,38.854023 L29.575783,36.9963523 L30.5417444,36.9367768 L30.5417444,30.5297083 L29.575783,30.4701329 L29.575783,28.6124622 L34.1478192,28.6124622 C38.2640085,28.626002 38.6900083,28.9347112 38.6900083,31.6968455 C38.6900083,33.3216304 38.4186708,34.006748 36.4324806,34.1963063 C36.8711246,34.3469427 37.2200529,34.6842632 37.3848751,35.1170177 L38.2341614,36.915113 L39.3927723,36.9882283 L39.4063392,38.851315 Z M33.5156029,32.9154342 C35.9929139,32.9018943 36.0661751,32.7692035 36.0661751,31.7022615 C36.0661751,30.6353194 35.9929139,30.5026286 33.9280359,30.4890887 L33.1954247,30.5324163 L33.1954247,32.9154342 L33.5156029,32.9154342 Z" id="Shape" fill="url(#linearGradient-3)"></path>
                                <path d="M48.7186408,31.7862087 L46.0948075,31.9324393 C46.0948075,30.5432482 46.1083744,30.4999206 44.483063,30.4999206 C42.9310128,30.4999206 42.8550383,30.6461513 42.8550383,33.7305346 C42.8550383,36.814918 42.9282994,36.9611486 44.483063,36.9611486 C46.0378267,36.9611486 46.0948075,36.917821 46.0948075,35.5286299 L48.7186408,35.3688594 C48.7186408,38.7023764 48.4473033,38.9948377 44.483063,38.9948377 C40.6137909,38.9948377 40.2203516,38.5263581 40.2203516,33.7305346 C40.2203516,28.9347112 40.6165042,28.4662315 44.483063,28.4662315 C48.4527301,28.4662315 48.7186408,28.7316131 48.7186408,31.7862087 Z" id="Shape" fill="url(#linearGradient-3)"></path>
                                <polygon id="Shape" fill="url(#linearGradient-3)" points="59.1352858 36.9340688 60.1012472 36.9936443 60.1012472 38.851315 55.5319244 38.851315 55.5319244 36.9936443 56.4978857 36.9340688 56.4978857 34.4968915 53.4073521 34.4968915 53.4073521 36.9340688 54.3733134 36.9936443 54.3733134 38.851315 49.8039906 38.851315 49.8039906 36.9936443 50.769952 36.9340688 50.769952 30.5297083 49.8039906 30.4701329 49.8039906 28.6124622 54.3760268 28.6124622 54.3760268 30.4701329 53.4100654 30.5297083 53.4100654 32.6635925 56.5005991 32.6635925 56.5005991 30.5297083 55.5346377 30.4701329 55.5346377 28.6124622 60.1066739 28.6124622 60.1066739 30.4701329 59.1407126 30.5297083"></polygon>
                                <path d="M77.7490355,38.851315 L73.4401967,38.851315 L73.4401967,36.9936443 L74.2325021,36.9340688 L74.2325021,31.0550555 L72.0780826,38.8486071 L69.5872048,38.8486071 L67.3595242,31.0685953 L67.3595242,36.9313609 L68.1952436,36.9909363 L68.1952436,38.8486071 L63.902685,38.8486071 L63.902685,36.9909363 L64.9581877,36.917821 L64.9581877,30.5432482 L63.9623792,30.4701329 L63.9623792,28.6124622 L69.3402877,28.6124622 L70.6454208,34.228802 C70.762096,34.6972816 70.8652042,35.1657613 70.9683124,35.6315329 L71.3210511,34.228802 L72.5963372,28.6124622 L77.7517489,28.6124622 L77.7517489,30.4701329 L76.7695073,30.5432482 L76.7695073,36.917821 L77.7653158,36.9909363 L77.7490355,38.851315 Z" id="Shape" fill="url(#linearGradient-3)"></path>
                                <path d="M89.6905971,38.851315 L85.3247774,38.851315 L85.3247774,36.9936443 L86.0709554,36.9503167 L85.7779109,36.1027206 L82.4540271,36.1027206 L82.1826896,36.9367768 L82.974995,36.9963523 L82.974995,38.854023 L78.8343854,38.854023 L78.8343854,36.9963523 L79.7270856,36.9367768 L82.011747,30.562204 L80.8531361,30.4755489 L80.8531361,28.6178781 L85.7616307,28.6178781 L88.7463427,36.9394848 L89.6851703,36.9990602 L89.6905971,38.851315 Z M84.8065228,33.2214353 C84.5568924,32.4469545 84.3235422,31.6562259 84.1173257,30.8384175 C83.9510415,31.6465437 83.7307662,32.4426609 83.4579757,33.2214353 L83.0536828,34.3912805 L85.1999621,34.3912805 L84.8065228,33.2214353 Z" id="Shape" fill="url(#linearGradient-3)"></path>
                                <path d="M95.3479831,38.851315 L90.7759469,38.851315 L90.7759469,36.9936443 L91.7419083,36.9340688 L91.7419083,30.5297083 L90.7759469,30.4701329 L90.7759469,28.6124622 L95.3479831,28.6124622 C99.5238666,28.626002 99.9607199,29.1378093 99.9607199,33.7305346 C99.9607199,38.3232599 99.4940195,38.8350672 95.3479831,38.851315 Z M95.1580469,36.9801044 C97.2527721,36.9801044 97.3124663,36.8203339 97.3124663,33.7305346 C97.3124663,30.6407353 97.2093581,30.4809648 95.1580469,30.4809648 L95.1146329,30.4809648 L94.3820218,30.5242924 L94.3820218,36.9286529 L95.1146329,36.9719805 L95.1580469,36.9801044 Z" id="Shape" fill="url(#linearGradient-3)"></path>
                                <polygon id="Shape" fill="url(#linearGradient-3)" points="110.551021 30.5432482 110.551021 38.8486071 107.767099 38.8486071 104.060629 32.07867 104.060629 36.917821 105.042871 36.9909363 105.042871 38.8486071 100.763879 38.8486071 100.763879 36.9909363 101.74612 36.917821 101.74612 30.5270004 100.780159 30.4674249 100.780159 28.6097542 104.98589 28.6097542 108.241939 34.5320952 108.241939 30.5432482 107.259698 30.4701329 107.259698 28.6124622 111.519696 28.6124622 111.519696 30.4701329"></polygon>
                                <polygon id="Shape" fill="url(#linearGradient-3)" points="120.937819 38.851315 112.586052 38.851315 112.586052 36.9936443 113.552013 36.9340688 113.552013 30.5297083 112.586052 30.4701329 112.586052 28.6124622 120.791297 28.6124622 120.791297 31.756421 118.769833 31.756421 118.636877 30.4701329 117.158088 30.4701329 116.192127 30.5297083 116.192127 32.8693986 118.596177 32.8693986 118.596177 34.7270694 116.192127 34.7270694 116.192127 36.9340688 117.158088 36.9936443 118.786113 36.9936443 118.919068 35.7208961 120.940532 35.7208961"></polygon>
                                <path d="M130.24198,31.5533228 L127.691408,31.7130934 C127.691408,30.5134605 127.631714,30.456593 126.256033,30.456593 C124.790811,30.456593 124.71755,30.4863808 124.71755,31.3475168 C124.71755,32.1084577 124.850505,32.284476 127.341383,32.7664956 C130.095458,33.3080905 130.478044,33.4678611 130.478044,35.6477808 C130.478044,38.7186243 130.184999,38.9975457 126.258746,38.9975457 C122.332493,38.9975457 122.023169,38.7267482 122.023169,35.7669317 L124.573741,35.6071612 C124.573741,36.9611486 124.633435,37.0098921 126.258746,37.0098921 C127.827077,37.0098921 127.913905,36.8636615 127.913905,35.9862777 C127.913905,35.1738852 127.827077,34.9924509 125.935855,34.6106264 C122.32978,33.9390487 122.169691,33.5870119 122.169691,31.2039941 C122.169691,28.8778437 122.419321,28.4689395 126.258746,28.4689395 C130.00049,28.4662315 130.263687,28.7045333 130.24198,31.5533228 Z" id="Shape" fill="url(#linearGradient-3)"></path>
                                <path d="M139.790346,31.5533228 L137.239773,31.7130934 C137.239773,30.5134605 137.180079,30.456593 135.804398,30.456593 C134.339176,30.456593 134.265915,30.4863808 134.265915,31.3475168 C134.265915,32.1084577 134.39887,32.284476 136.889748,32.7664956 C139.643823,33.3080905 140.026409,33.4678611 140.026409,35.6477808 C140.023696,38.7240402 139.738791,38.9948377 135.804398,38.9948377 C131.870005,38.9948377 131.568821,38.7240402 131.568821,35.7642237 L134.119393,35.6044532 C134.119393,36.9584406 134.179087,37.0071842 135.804398,37.0071842 C137.372729,37.0071842 137.459557,36.8609535 137.459557,35.9835697 C137.459557,35.1711772 137.372729,34.9897429 135.481507,34.6079185 C131.875432,33.9363407 131.715343,33.584304 131.715343,31.2012861 C131.715343,28.8751357 131.964973,28.4662315 135.804398,28.4662315 C139.540715,28.4662315 139.803912,28.7045333 139.790346,31.5533228 Z" id="Shape" fill="url(#linearGradient-3)"></path>
                                <path d="M16.1391521,29.0186584 L16.1391521,30.1018483 L15.5340695,30.1478839 C15.3210188,30.1635178 15.1563353,30.3408802 15.1569105,30.5540801 L15.1569105,36.9286529 C15.1563353,37.1418528 15.3210188,37.3192152 15.5340695,37.3348491 L16.1527189,37.3808847 L16.1527189,38.4640746 L12.6578925,38.4640746 L12.6578925,37.3808847 L13.0730388,37.351097 C13.2860895,37.335463 13.450773,37.1581007 13.4501978,36.9449007 L13.4501978,31.0550555 C13.4506596,30.8513018 13.2997968,30.6787339 13.0974591,30.6515672 L13.0431917,30.6515672 C12.8607809,30.6522573 12.7011076,30.7739872 12.6524657,30.9494444 L10.5821609,38.4532427 L8.70450569,38.4532427 L6.56093976,30.9684003 C6.51128947,30.7940166 6.35186209,30.6735791 6.17021382,30.673231 L6.11323295,30.673231 C5.91197314,30.70163 5.76256103,30.8738633 5.76320763,31.0767193 L5.76320763,36.9394848 C5.76273025,37.1536574 5.9289573,37.3314033 6.14308007,37.345681 L6.598927,37.3781767 L6.598927,38.4613667 L3.12038078,38.4613667 L3.12038078,37.3781767 L3.79601105,37.3321411 C4.01013382,37.3178635 4.17636088,37.1401175 4.1758835,36.9259449 L4.1758835,30.5432482 C4.17503854,30.3310904 4.0107347,30.1553167 3.79872443,30.13976 L3.18007502,30.0937244 L3.18007502,29.0105345 L7.82537232,29.0105345 L9.05724438,34.3181652 C9.17391949,34.7812288 9.27702773,35.2551244 9.37742259,35.7100642 C9.41323053,35.8984097 9.57610892,36.0361293 9.76814853,36.0404371 L9.76814853,36.0404371 C9.95468335,36.0396723 10.1168207,35.9124525 10.1615878,35.731728 L10.5143265,34.3181652 L11.7163515,29.0186584 L16.1391521,29.0186584 L16.1391521,29.0186584 Z M16.5461583,28.6124622 L11.3961733,28.6124622 L10.1208872,34.228802 L9.76814853,35.6342409 C9.66504029,35.1657613 9.56193206,34.6972816 9.44525695,34.23151 L8.14012377,28.6124622 L2.77306883,28.6124622 L2.77306883,30.4701329 L3.76887731,30.5432482 L3.76887731,36.917821 L2.71337459,36.9909363 L2.71337459,38.8486071 L7.00593319,38.8486071 L7.00593319,36.9909363 L6.17021382,36.9313609 L6.17021382,31.0713033 L8.41146123,38.851315 L10.9023391,38.851315 L13.0567585,31.0577634 L13.0567585,36.9367768 L12.2644531,36.9963523 L12.2644531,38.854023 L16.551585,38.854023 L16.551585,36.9963523 L15.5557765,36.9232369 L15.5557765,30.5432482 L16.5380181,30.4701329 L16.5380181,28.6124622 L16.5461583,28.6124622 Z" id="Shape" fill="#FFFFFF"></path>
                                <path d="M24.2901293,29.0186584 L27.1825866,37.0694676 C27.2367072,37.2232862 27.3777307,37.3299096 27.5407521,37.3402651 L28.083427,37.3754687 L28.083427,38.4532427 L24.5424732,38.4532427 L24.5424732,37.3700528 L24.9060654,37.348389 C25.0341228,37.3412729 25.1513281,37.2743325 25.2223483,37.1677477 C25.2933685,37.0611629 25.3098945,36.9274039 25.2669442,36.806794 L24.9630462,35.9673218 C24.905361,35.804484 24.7508053,35.6958585 24.577747,35.6965243 L21.2647167,35.6965243 C21.0916585,35.6958585 20.9371027,35.804484 20.8794175,35.9673218 L20.60808,36.8013781 C20.565319,36.9211293 20.581201,37.0539538 20.6509966,37.1603 C20.7207923,37.2666462 20.8364508,37.3342471 20.9635321,37.342973 L21.3786784,37.3727608 L21.3786784,38.4559507 L18.0520812,38.4559507 L18.0520812,37.3727608 L18.5649089,37.3402651 C18.7269176,37.3288625 18.8666264,37.2224269 18.920361,37.0694676 L21.2050224,30.6948948 C21.2476983,30.5755697 21.2321406,30.443205 21.1629538,30.3369756 C21.093767,30.2307462 20.9788758,30.1628197 20.8522837,30.1532998 L20.078972,30.0937244 L20.078972,29.0105345 L24.2901293,29.0105345 L24.2901293,29.0186584 Z M21.8670858,34.7866448 L24.0215053,34.7866448 C24.1539106,34.7871549 24.2782894,34.7233545 24.3549423,34.6156075 C24.4315953,34.5078605 24.4509409,34.369635 24.4068044,34.2450498 L23.9997983,33.0860366 C23.7284608,32.2249006 23.5005373,31.4612517 23.3187412,30.7273905 C23.2739741,30.546666 23.1118367,30.4194462 22.9253019,30.4186814 L22.9253019,30.4186814 C22.7272938,30.4167727 22.556643,30.5573652 22.5210091,30.7517623 C22.358797,31.5452852 22.1430445,32.3269624 21.875226,33.0914525 L21.4790733,34.2612977 C21.4349368,34.3858828 21.4542824,34.5241083 21.5309354,34.6318553 C21.6075883,34.7396024 21.7319671,34.8034028 21.8643725,34.8028926 L21.8670858,34.7866448 Z M24.577747,28.6205861 L19.666539,28.6205861 L19.666539,30.4782568 L20.82515,30.564912 L18.5404886,36.9394848 L17.6477883,36.9990602 L17.6477883,38.856731 L21.7775445,38.856731 L21.7775445,36.9990602 L20.9852391,36.9394848 L21.2565765,36.1054285 L24.5913139,36.1054285 L24.8843584,36.9530247 L24.1381804,36.9963523 L24.1381804,38.854023 L28.4904332,38.854023 L28.4904332,36.9963523 L27.5516056,36.9367768 L24.5668935,28.6151701 L24.577747,28.6205861 Z M21.8643725,34.3912805 L22.2496716,33.2214353 C22.5225242,32.4426803 22.7428007,31.6465588 22.9090217,30.8384175 C23.1152381,31.6508099 23.3485884,32.4469545 23.5982188,33.2214353 L24.0187919,34.3912805 L21.8643725,34.3912805 Z" id="Shape" fill="#FFFFFF"></path>
                                <path d="M34.1586727,29.0186584 C36.0770286,29.0186584 37.2139325,29.0971897 37.7457539,29.4600583 C38.166327,29.7471036 38.2884288,30.2724507 38.2884288,31.6995535 C38.2884288,33.1266562 38.1419066,33.6276316 36.3890666,33.795526 C36.1970188,33.8138582 36.0442511,33.9642327 36.0232345,34.1556272 C36.002218,34.3470216 36.1187272,34.5268472 36.3022386,34.5862547 C36.6336248,34.7022514 36.8942014,34.9623094 37.0104294,35.2930361 L37.8787093,37.0992553 C37.9416568,37.233241 38.0726346,37.3224607 38.2205945,37.3321411 L38.9966196,37.3808847 L38.9966196,38.4640746 L36.3809265,38.4640746 L35.0622265,35.2470005 C34.7529018,34.5212633 34.3269019,34.3994044 33.4857558,34.3994044 L33.1927114,34.3994044 C32.9679281,34.3994044 32.7857052,34.5812646 32.7857052,34.8056006 L32.7857052,36.9557326 C32.7853168,37.1708855 32.9530971,37.34902 33.168291,37.3619289 L33.7516665,37.3971325 L33.7516665,38.4532427 L29.9963561,38.4532427 L29.9963561,37.3700528 L30.5797316,37.3348491 C30.7949255,37.3219403 30.9627058,37.1438058 30.9623175,36.9286529 L30.9623175,30.5297083 C30.9627058,30.3145554 30.7949255,30.136421 30.5797316,30.1235121 L29.9963561,30.0883084 L29.9963561,29.0186584 L34.1613861,29.0186584 L34.1586727,29.0186584 Z M33.1927114,33.3080905 L33.5183163,33.3080905 C35.8599586,33.2945507 36.4731812,33.2268513 36.4731812,31.6833056 C36.4731812,30.2182912 36.0227611,30.0774766 33.9307493,30.0585207 L33.9036155,30.0585207 L33.1710044,30.1018483 C32.9558105,30.1147572 32.7880302,30.2928916 32.7884186,30.5080446 L32.7884186,32.8910624 C32.7884186,33.1153984 32.9706414,33.2972586 33.1954247,33.2972586 L33.1927114,33.3080905 Z M34.1613861,28.5907984 L29.575783,28.5907984 L29.575783,30.4484691 L30.5417444,30.5080446 L30.5417444,36.912405 L29.575783,36.9719805 L29.575783,38.8296512 L34.1478192,38.8296512 L34.1478192,36.9719805 L33.1818579,36.912405 L33.1818579,34.762273 L33.4749023,34.762273 C34.2889147,34.762273 34.4707108,34.8787159 34.6769273,35.3607355 L36.0987356,38.8269433 L39.3954857,38.8269433 L39.3954857,36.9692725 L38.2368747,36.8961572 L37.3875885,35.0980619 C37.2227663,34.6653074 36.873838,34.3279868 36.435194,34.1773505 C38.4132441,33.9877922 38.6927217,33.3135065 38.6927217,31.6778897 C38.6927217,28.9130474 38.2667219,28.6070462 34.1505326,28.5935063 L34.1613861,28.5907984 Z M33.1954247,32.8910624 L33.1954247,30.5080446 L33.9280359,30.464717 C35.9929139,30.4782568 36.0661751,30.5811599 36.0661751,31.6778897 C36.0661751,32.7746195 35.9929139,32.8775225 33.5156029,32.8910624 L33.1954247,32.8910624 Z" id="Shape" fill="#FFFFFF"></path>
                                <path d="M44.483063,28.8724277 C46.3525781,28.8724277 47.3836605,28.9374191 47.836794,29.2975798 C48.205813,29.5927491 48.2953543,30.1993354 48.3089212,31.4016762 L46.4991004,31.5018713 C46.4991004,30.9765242 46.4394061,30.6299034 46.1653553,30.3861857 C45.837037,30.0910164 45.3269225,30.0910164 44.483063,30.0910164 C42.5131531,30.0910164 42.4507455,30.6678151 42.4507455,33.7278266 C42.4507455,36.7878382 42.5131531,37.3646368 44.483063,37.3646368 C46.0351133,37.3646368 46.4394061,37.24007 46.4936736,35.9077464 L48.3062078,35.7967194 C48.292641,37.1209191 48.1976729,37.7924969 47.8205138,38.1228698 C47.372807,38.5128182 46.344438,38.5859335 44.483063,38.5859335 C42.6840957,38.5859335 41.6855738,38.4803225 41.2270135,37.9035238 C40.7684532,37.3267252 40.6354979,36.0079415 40.6354979,33.7278266 C40.6354979,31.4477118 40.7277526,30.1668397 41.2270135,29.5521294 C41.7262745,28.9374191 42.6949492,28.8697198 44.483063,28.8697198 L44.483063,28.8724277 Z M44.483063,28.4635235 C40.6137909,28.4635235 40.2203516,28.9320032 40.2203516,33.7278266 C40.2203516,38.5236501 40.6137909,38.9948377 44.483063,38.9948377 C48.4527301,38.9948377 48.7186408,38.7023764 48.7186408,35.3688594 L46.0948075,35.5286299 C46.0948075,36.917821 46.0215464,36.9611486 44.483063,36.9611486 C42.9445796,36.9611486 42.8550383,36.814918 42.8550383,33.7305346 C42.8550383,30.6461513 42.9282994,30.4999206 44.483063,30.4999206 C46.1110878,30.4999206 46.0948075,30.5432482 46.0948075,31.9324393 L48.7186408,31.7862087 C48.7186408,28.7289051 48.4473033,28.4662315 44.483063,28.4662315 L44.483063,28.4635235 Z" id="Shape" fill="#FFFFFF"></path>
                                <path d="M59.694241,29.0186584 L59.694241,30.0883084 L59.1108655,30.1235121 C58.8956716,30.136421 58.7278913,30.3145554 58.7282796,30.5297083 L58.7282796,36.9340688 C58.7278913,37.1492217 58.8956716,37.3273562 59.1108655,37.3402651 L59.694241,37.3700528 L59.694241,38.4532427 L55.9389306,38.4532427 L55.9389306,37.3700528 L56.5223061,37.3348491 C56.7375,37.3219403 56.9052803,37.1438058 56.9048919,36.9286529 L56.9048919,34.4914755 C56.9048919,34.2671396 56.722669,34.0852793 56.4978857,34.0852793 L53.4073521,34.0852793 C53.1825688,34.0852793 53.0003459,34.2671396 53.0003459,34.4914755 L53.0003459,36.9286529 C52.9999575,37.1438058 53.1677378,37.3219403 53.3829317,37.3348491 L53.9663072,37.3700528 L53.9663072,38.4532427 L50.1974299,38.4532427 L50.1974299,37.3700528 L50.7808055,37.3348491 C50.9959994,37.3219403 51.1637797,37.1438058 51.1633913,36.9286529 L51.1633913,30.5297083 C51.1637797,30.3145554 50.9959994,30.136421 50.7808055,30.1235121 L50.1974299,30.0883084 L50.1974299,29.0186584 L53.9554537,29.0186584 L53.9554537,30.0883084 L53.3720782,30.1235121 C53.1568843,30.136421 52.989104,30.3145554 52.9894924,30.5297083 L52.9894924,32.6635925 C52.9894924,32.8879285 53.1717153,33.0697887 53.3964986,33.0697887 L56.4870322,33.0697887 C56.7118155,33.0697887 56.8940384,32.8879285 56.8940384,32.6635925 L56.8940384,30.5297083 C56.8944268,30.3145554 56.7266465,30.136421 56.5114526,30.1235121 L55.9280771,30.0883084 L55.9280771,29.0186584 L59.694241,29.0186584 L59.694241,29.0186584 Z M60.1012472,28.6124622 L55.5319244,28.6124622 L55.5319244,30.4701329 L56.4978857,30.5297083 L56.4978857,32.6635925 L53.4073521,32.6635925 L53.4073521,30.5297083 L54.3733134,30.4701329 L54.3733134,28.6124622 L49.8039906,28.6124622 L49.8039906,30.4701329 L50.769952,30.5297083 L50.769952,36.9340688 L49.8039906,36.9936443 L49.8039906,38.851315 L54.3760268,38.851315 L54.3760268,36.9936443 L53.4100654,36.9340688 L53.4100654,34.4968915 L56.5005991,34.4968915 L56.5005991,36.9340688 L55.5346377,36.9936443 L55.5346377,38.851315 L60.1066739,38.851315 L60.1066739,36.9936443 L59.1407126,36.9340688 L59.1407126,30.5297083 L60.1066739,30.4701329 L60.1066739,28.6124622 L60.1012472,28.6124622 Z" id="Shape" fill="#FFFFFF"></path>
                                <path d="M77.3311758,29.0186584 L77.3311758,30.1018483 L76.7260933,30.1478839 C76.5130426,30.1635178 76.3483591,30.3408802 76.3489342,30.5540801 L76.3489342,36.9286529 C76.3483591,37.1418528 76.5130426,37.3192152 76.7260933,37.3348491 L77.3311758,37.3700528 L77.3311758,38.4532427 L73.8472029,38.4532427 L73.8472029,37.3700528 L74.2623492,37.3402651 C74.4753999,37.3246311 74.6400834,37.1472688 74.6395082,36.9340688 L74.6395082,31.0550555 C74.63997,30.8513018 74.4891072,30.6787339 74.2867695,30.6515672 L74.2325021,30.6515672 C74.0500913,30.6522573 73.890418,30.7739872 73.8417761,30.9494444 L71.7687579,38.4532427 L69.8938161,38.4532427 L67.7502502,30.9684003 C67.7005999,30.7940166 67.5411725,30.6735791 67.3595242,30.673231 L67.2916898,30.673231 C67.09043,30.70163 66.9410179,30.8738633 66.9416645,31.0767193 L66.9416645,36.9394848 C66.9411871,37.1536574 67.1074142,37.3314033 67.321537,37.345681 L67.7773839,37.3781767 L67.7773839,38.4613667 L64.3069778,38.4613667 L64.3069778,37.3781767 L64.9826081,37.3321411 C65.1967308,37.3178635 65.3629579,37.1401175 65.3624805,36.9259449 L65.3624805,30.5432482 C65.3630556,30.3300483 65.1983722,30.1526859 64.9853214,30.137052 L64.366672,30.0910164 L64.366672,29.0078265 L69.0146827,29.0078265 L70.2465548,34.3154572 C70.3632299,34.7785209 70.4663381,35.2524165 70.566733,35.7073562 C70.6069737,35.8914064 70.7687298,36.0236927 70.9574589,36.0268973 L70.9574589,36.0268973 C71.145006,36.0273764 71.3086008,35.8998922 71.3536116,35.7181881 L71.7063503,34.3046253 L72.9083753,29.0051185 L77.3311758,29.0051185 L77.3311758,29.0186584 Z M77.738182,28.5989223 L72.5827703,28.5989223 L71.3074842,34.2152621 L70.9547455,35.6179931 C70.8516373,35.1495134 70.7485291,34.6810338 70.631854,34.2152621 L69.3267208,28.5989223 L63.9596659,28.5989223 L63.9596659,30.456593 L64.9554743,30.5297083 L64.9554743,36.9042811 L63.8999716,36.9773964 L63.8999716,38.8350672 L68.1925302,38.8350672 L68.1925302,36.9773964 L67.3568108,36.917821 L67.3568108,31.0713033 L69.5844914,38.851315 L72.0753693,38.851315 L74.2297887,31.0577634 L74.2297887,36.9367768 L73.4374833,36.9963523 L73.4374833,38.854023 L77.7463221,38.854023 L77.7463221,36.9963523 L76.7505137,36.9232369 L76.7505137,30.5432482 L77.7327553,30.4701329 L77.7327553,28.6124622 L77.738182,28.5989223 Z" id="Shape" fill="#FFFFFF"></path>
                                <path d="M85.4712996,29.0186584 L88.3637569,37.0694676 C88.4178775,37.2232862 88.558901,37.3299096 88.7219224,37.3402651 L89.2645973,37.3754687 L89.2645973,38.4532427 L85.7426371,38.4532427 L85.7426371,37.3700528 L86.1062293,37.348389 C86.2342867,37.3412729 86.351492,37.2743325 86.4225122,37.1677477 C86.4935324,37.0611629 86.5100584,36.9274039 86.4671081,36.806794 L86.1740636,35.9591979 C86.1163784,35.7963601 85.9618226,35.6877346 85.7887644,35.6884004 L82.4540271,35.6884004 C82.2809689,35.6877346 82.1264131,35.7963601 82.0687279,35.9591979 L81.7973904,36.7932542 C81.7546294,36.9130053 81.7705114,37.0458299 81.840307,37.1521761 C81.9101027,37.2585223 82.0257612,37.3261232 82.1528425,37.3348491 L82.5679888,37.3646368 L82.5679888,38.4478268 L79.230538,38.4478268 L79.230538,37.3646368 L79.7433658,37.3321411 C79.9053745,37.3207386 80.0450833,37.2143029 80.0988179,37.0613437 L82.3834793,30.6867709 C82.4261552,30.5674458 82.4105975,30.4350811 82.3414107,30.3288517 C82.2722239,30.2226223 82.1573327,30.1546958 82.0307406,30.1451759 L81.2492887,30.0856005 L81.2492887,29.0024105 L85.4712996,29.0024105 L85.4712996,29.0186584 Z M83.0482561,34.7785209 L85.1999621,34.7785209 C85.3323675,34.779031 85.4567463,34.7152306 85.5333992,34.6074836 C85.6100522,34.4997365 85.6293978,34.361511 85.5852613,34.2369259 L85.1782552,33.0779127 C84.9069177,32.2194846 84.6789942,31.4531278 84.4971981,30.7192666 C84.4521873,30.5375625 84.2885925,30.4100784 84.1010454,30.4105575 L84.1010454,30.4105575 C83.9114984,30.4140477 83.749467,30.5476822 83.7103195,30.7328065 C83.5471555,31.5263788 83.3304974,32.3080527 83.061823,33.0724967 L82.6656703,34.2423419 C82.6215338,34.366927 82.6408795,34.5051525 82.7175324,34.6128995 C82.7941853,34.7206466 82.9185641,34.7844469 83.0509695,34.7839368 L83.0482561,34.7785209 Z M85.7643441,28.6016303 L80.8585628,28.6016303 L80.8585628,30.459301 L82.0171738,30.5459562 L79.7325123,36.920529 L78.8398121,36.9801044 L78.8398121,38.8377752 L82.9722816,38.8377752 L82.9722816,36.9801044 L82.1799762,36.920529 L82.4513137,36.0864727 L85.7779109,36.0864727 L86.0709554,36.9340688 L85.3247774,36.9773964 L85.3247774,38.8350672 L89.6905971,38.8350672 L89.6905971,36.9773964 L88.7517695,36.917821 L85.7670574,28.5962143 L85.7643441,28.6016303 Z M83.0509695,34.3777406 L83.4471222,33.2078955 C83.7199127,32.429121 83.940188,31.6330038 84.1064722,30.8248776 C84.3126887,31.6372701 84.5460389,32.4334147 84.7956693,33.2078955 L85.1999621,34.3912805 L83.0509695,34.3777406 Z" id="Shape" fill="#FFFFFF"></path>
                                <path d="M95.3479831,29.0186584 C99.2688094,29.0321983 99.5428602,29.3409074 99.5428602,33.7305346 C99.5428602,35.8644188 99.439752,37.134459 98.9025038,37.7356294 C98.3652557,38.3367998 97.2907593,38.4369949 95.3506965,38.4424108 L91.1829531,38.4424108 L91.1829531,37.3700528 L91.7663287,37.3348491 C91.9815225,37.3219403 92.1493029,37.1438058 92.1489145,36.9286529 L92.1489145,30.5297083 C92.1493029,30.3145554 91.9815225,30.136421 91.7663287,30.1235121 L91.1829531,30.0883084 L91.1829531,29.0186584 L95.3479831,29.0186584 L95.3479831,29.0186584 Z M95.1146329,37.3835927 L95.1580469,37.3835927 C96.1131548,37.3835927 96.9380206,37.3835927 97.3613071,36.7309707 C97.7031923,36.2056236 97.7167591,35.3769833 97.7167591,33.7305346 C97.7167591,32.0840859 97.6814853,31.2391978 97.3423134,30.7273905 C96.9136003,30.0801845 96.0995879,30.0801845 95.1580469,30.0801845 L95.0902125,30.0801845 L94.3576014,30.1235121 C94.1424075,30.136421 93.9746272,30.3145554 93.9750156,30.5297083 L93.9750156,36.9340688 C93.9746272,37.1492217 94.1424075,37.3273562 94.3576014,37.3402651 L95.0902125,37.3835927 L95.1146329,37.3835927 L95.1146329,37.3835927 Z M95.3479831,28.6124622 L90.7759469,28.6124622 L90.7759469,30.4701329 L91.7419083,30.5297083 L91.7419083,36.9340688 L90.7759469,36.9936443 L90.7759469,38.851315 L95.3479831,38.851315 C99.4940195,38.8377752 99.9607199,38.3259679 99.9607199,33.7332426 C99.9607199,29.1405173 99.5347201,28.62871 95.3479831,28.6151701 L95.3479831,28.6124622 Z M95.1146329,36.9773964 L94.3820218,36.9340688 L94.3820218,30.5297083 L95.1146329,30.4863808 L95.1580469,30.4863808 C97.2093581,30.4863808 97.3124663,30.6461513 97.3124663,33.7359506 C97.3124663,36.8257499 97.2527721,36.9855204 95.1580469,36.9855204 L95.1146329,36.9773964 Z" id="Shape" fill="#FFFFFF"></path>
                                <path d="M111.126256,29.0186584 L111.126256,30.1018483 L110.521174,30.1478839 C110.308123,30.1635178 110.14344,30.3408802 110.144015,30.5540801 L110.144015,38.4532427 L108.008589,38.4532427 L104.416081,31.8945277 C104.327375,31.7304952 104.138188,31.6477682 103.957224,31.6938799 C103.77626,31.7399916 103.649966,31.9031064 103.650909,32.0895019 L103.650909,36.9286529 C103.650334,37.1418528 103.815018,37.3192152 104.028068,37.3348491 L104.633151,37.3808847 L104.633151,38.4640746 L101.170885,38.4640746 L101.170885,37.3808847 L101.775968,37.3348491 C101.989018,37.3192152 102.153702,37.1418528 102.153127,36.9286529 L102.153127,30.5378323 C102.153515,30.3226794 101.985735,30.1445449 101.770541,30.131636 L101.187165,30.0964324 L101.187165,29.0267823 L104.736259,29.0267823 L107.87292,34.7379013 C107.961626,34.9019338 108.150813,34.9846608 108.331777,34.938549 C108.512742,34.8924373 108.639035,34.7293226 108.638092,34.5429271 L108.638092,30.5432482 C108.638667,30.3300483 108.473984,30.1526859 108.260933,30.137052 L107.65585,30.0910164 L107.65585,29.0078265 L111.12083,29.0078265 L111.126256,29.0186584 Z M111.527836,28.6016303 L107.254271,28.6016303 L107.254271,30.459301 L108.236512,30.5324163 L108.236512,34.5239712 L104.980463,28.6016303 L100.774732,28.6016303 L100.774732,30.459301 L101.740694,30.5188764 L101.740694,36.9096971 L100.758452,36.9828124 L100.758452,38.8404831 L105.037444,38.8404831 L105.037444,36.9828124 L104.055202,36.9096971 L104.055202,32.07867 L107.761672,38.8486071 L110.545594,38.8486071 L110.545594,30.5432482 L111.527836,30.4701329 L111.527836,28.6124622 L111.527836,28.6016303 Z" id="Shape" fill="#FFFFFF"></path>
                                <path d="M120.38429,29.0186584 L120.38429,31.3502247 L119.136138,31.3502247 L119.04117,30.4295133 C119.020294,30.2222082 118.845642,30.0642813 118.636877,30.0639367 L117.133668,30.0639367 L116.167706,30.1235121 C115.952512,30.136421 115.784732,30.3145554 115.785121,30.5297083 L115.785121,32.8693986 C115.785121,33.0937346 115.967343,33.2755948 116.192127,33.2755948 L118.18917,33.2755948 L118.18917,34.3208731 L116.192127,34.3208731 C115.967343,34.3208731 115.785121,34.5027334 115.785121,34.7270694 L115.785121,36.9340688 C115.784732,37.1492217 115.952512,37.3273562 116.167706,37.3402651 L117.133668,37.3998405 L118.783399,37.3998405 C118.992164,37.3994959 119.166816,37.241569 119.187692,37.0342639 L119.28266,36.1270923 L120.530813,36.1270923 L120.530813,38.4532427 L112.993058,38.4532427 L112.993058,37.3700528 L113.576434,37.3348491 C113.791628,37.3219403 113.959408,37.1438058 113.959019,36.9286529 L113.959019,30.5297083 C113.959408,30.3145554 113.791628,30.136421 113.576434,30.1235121 L112.993058,30.0883084 L112.993058,29.0186584 L120.38429,29.0186584 L120.38429,29.0186584 Z M120.791297,28.6124622 L112.586052,28.6124622 L112.586052,30.4701329 L113.552013,30.5297083 L113.552013,36.9340688 L112.586052,36.9936443 L112.586052,38.851315 L120.937819,38.851315 L120.937819,35.7208961 L118.916355,35.7208961 L118.783399,36.9936443 L117.155375,36.9936443 L116.189413,36.9340688 L116.189413,34.7270694 L118.593463,34.7270694 L118.593463,32.8693986 L116.189413,32.8693986 L116.189413,30.5297083 L117.155375,30.4701329 L118.634164,30.4701329 L118.767119,31.756421 L120.788583,31.756421 L120.788583,28.6124622 L120.791297,28.6124622 Z" id="Shape" fill="#FFFFFF"></path>
                                <path d="M126.264173,28.8724277 C128.136402,28.8724277 129.096936,28.9401271 129.479522,29.3246595 C129.75086,29.595457 129.834974,30.1587158 129.840401,31.1687904 L128.092988,31.2798174 C128.02244,30.1641317 127.62086,30.0476888 126.26146,30.0476888 C124.902059,30.0476888 124.31597,30.0476888 124.31597,31.3448088 C124.31597,32.4821582 124.836938,32.6987962 127.268122,33.1618599 C129.981496,33.7034549 130.076465,33.7846941 130.076465,35.6450728 C130.076465,38.4776145 129.932656,38.5886415 126.264173,38.5886415 C124.402798,38.5886415 123.371716,38.5236501 122.913156,38.1661974 C122.544137,37.8791521 122.451882,37.2942295 122.438315,36.1433402 L124.174875,36.0350212 C124.191155,36.5007929 124.256276,36.8744934 124.54932,37.1182111 C124.883066,37.3890086 125.363333,37.4106724 126.264173,37.4106724 C127.892198,37.4106724 128.326338,37.2319461 128.326338,35.9808617 C128.326338,34.8001847 127.859637,34.5781307 126.017256,34.2071382 C122.584837,33.5653481 122.584837,33.3432942 122.584837,31.1985781 C122.584837,29.1811369 122.584837,28.8697198 126.266887,28.8697198 L126.264173,28.8724277 Z M126.266887,28.4635235 C122.427462,28.4635235 122.177831,28.8724277 122.177831,31.1985781 C122.177831,33.581596 122.33792,33.9336327 125.943995,34.6052105 C127.843357,34.984327 127.922045,35.1765932 127.922045,35.9808617 C127.922045,36.8582456 127.835217,37.0044762 126.266887,37.0044762 C124.638862,37.0044762 124.581881,36.9449007 124.581881,35.6017452 L122.031309,35.7615157 C122.031309,38.7159163 122.302646,38.9921297 126.266887,38.9921297 C130.231127,38.9921297 130.486184,38.7213322 130.486184,35.6423648 C130.486184,33.475985 130.106312,33.3026746 127.349523,32.7610796 C124.858645,32.2790601 124.72569,32.1030417 124.72569,31.3421008 C124.72569,30.4782568 124.798951,30.4511771 126.264173,30.4511771 C127.642567,30.4511771 127.699548,30.5107525 127.699548,31.7076774 L130.25012,31.5479069 C130.263687,28.7099493 130.00049,28.4635235 126.264173,28.4635235 L126.266887,28.4635235 Z" id="Shape" fill="#FFFFFF"></path>
                                <path d="M135.804398,28.8724277 C137.676627,28.8724277 138.637161,28.9401271 139.019747,29.3246595 C139.291085,29.595457 139.375199,30.1587158 139.380626,31.1687904 L137.633213,31.2798174 C137.562665,30.1641317 137.161086,30.0476888 135.801685,30.0476888 C134.442284,30.0476888 133.856195,30.0476888 133.856195,31.3448088 C133.856195,32.4821582 134.377163,32.6987962 136.808347,33.1618599 C139.521721,33.7034549 139.61669,33.7846941 139.61669,35.6450728 C139.61669,38.4776145 139.472881,38.5886415 135.804398,38.5886415 C133.943023,38.5886415 132.911941,38.5236501 132.453381,38.1661974 C132.084362,37.8791521 131.992107,37.2942295 131.97854,36.1433402 L133.7151,36.0350212 C133.73138,36.5007929 133.796501,36.8744934 134.089546,37.1182111 C134.423291,37.3890086 134.903558,37.4106724 135.804398,37.4106724 C137.432423,37.4106724 137.866563,37.2319461 137.866563,35.9808617 C137.866563,34.8001847 137.399863,34.5781307 135.557481,34.2071382 C132.125062,33.5653481 132.125062,33.3432942 132.125062,31.1985781 C132.125062,29.1811369 132.125062,28.8697198 135.807112,28.8697198 L135.804398,28.8724277 Z M135.807112,28.4635235 C131.967687,28.4635235 131.718056,28.8724277 131.718056,31.1985781 C131.718056,33.581596 131.878145,33.9336327 135.48422,34.6052105 C137.383582,34.984327 137.46227,35.1765932 137.46227,35.9808617 C137.46227,36.8582456 137.375442,37.0044762 135.807112,37.0044762 C134.179087,37.0044762 134.122106,36.9449007 134.122106,35.6017452 L131.571534,35.7615157 C131.571534,38.7159163 131.842871,38.9921297 135.807112,38.9921297 C139.771352,38.9921297 140.026409,38.7213322 140.026409,35.6423648 C140.026409,33.475985 139.646537,33.3026746 136.889748,32.7610796 C134.39887,32.2790601 134.265915,32.1030417 134.265915,31.3421008 C134.265915,30.4782568 134.339176,30.4511771 135.804398,30.4511771 C137.182793,30.4511771 137.239773,30.5107525 137.239773,31.7076774 L139.790346,31.5479069 C139.803912,28.7099493 139.540715,28.4635235 135.804398,28.4635235 L135.807112,28.4635235 Z" id="Shape" fill="#FFFFFF"></path>
                            </g>
                        </g>
                    </g>
                </g>
            </g>
        </g>
    </g>
</svg>