<?xml version="1.0" encoding="utf-8"?>
<!-- Generator: Adobe Illustrator 19.1.0, SVG Export Plug-In . SVG Version: 6.00 Build 0)  -->
<svg version="1.1" id="Layer_1" xmlns="http://www.w3.org/2000/svg" xmlns:xlink="http://www.w3.org/1999/xlink" x="0px" y="0px"
	 viewBox="0 0 482.1 107.7" style="enable-background:new 0 0 482.1 107.7;" xml:space="preserve">
<style type="text/css">
	.st0{fill:#0056A1;}
	.st1{fill:#0057A1;}
	.st2{fill:#0056A1;stroke:#0056A1;stroke-width:2;stroke-linecap:round;stroke-miterlimit:1;}
	.st3{fill:none;stroke:#0057A1;}
</style>
<g>
	<path class="st0" d="M34.9,80.7l-8.5-1.9c-5.2-1.2-7.8-3.3-7.8-6.3c0-2.1,0.9-3.8,2.6-5c1.5-1.1,3.3-1.6,5.4-1.6
		c3.8,0.2,5.7,2.7,5.8,7.6h0c0,2.3,1.7,4.1,3.9,4.1c2.1,0,3.8-1.8,3.8-4.1h0c0-4-1.6-7-4.9-9c-2.6-1.6-5.5-2.3-8.7-2.1
		c-3.7,0.1-6.8,1.3-9.1,3.5c-2.3,2.2-3.5,5.2-3.5,8.9c0,3.3,0.7,5.8,2.1,7.7c1.5,2.1,4.2,3.5,7.9,4.4l6.7,1.6
		c3.5,0.9,5.9,1.8,7.2,2.7c1.6,1.2,2.3,2.8,2.3,4.9c0,2.1-1,3.8-2.9,5.1c-1.7,1.2-3.6,1.8-5.7,1.8c-7.6,0-12.7-4.6-15.2-13.9
		c0,0,0,0,0,0c0-0.8-0.7-1.5-1.5-1.5c-0.8,0-1.5,0.7-1.5,1.5c0,0,0,0,0,0.1v16.9c0,0,0,0,0,0.1c0,0.8,0.7,1.5,1.5,1.5
		c0.8,0,1.5-0.7,1.5-1.5c0,0,0,0,0-0.1c0-2.9,0.5-4.3,1.6-4.3c0.3,0,0.7,0.1,1,0.4c3.4,2.9,7.5,4.4,12.3,4.4c4.1,0,7.4-1.2,10.1-3.7
		c2.6-2.5,4-5.8,4-10C45.2,86.3,41.8,82.2,34.9,80.7"/>
	<path class="st0" d="M222.5,87.1c-0.3-6.1-2-11.1-5.1-15c-3-3.8-7.1-5.7-12-5.7c-6.2,0-11.1,1.9-14.7,5.6c-3.6,3.7-5.4,9-5.4,15.8
		c0,5.6,1.8,10.2,5.4,13.6c3.6,3.5,8.4,5.2,14.3,5.2c5,0,9-1.4,12.2-4.2l0,0c0,0,0,0,0,0c0.9-0.7,1.2-1.9,0.6-2.7
		c-0.6-0.8-1.8-0.8-2.7-0.1c0,0,0,0,0,0c0,0,0,0,0,0c0,0,0,0,0,0c-2.3,1.9-5.2,2.8-8.6,2.8c-3.6,0-6.5-1.2-8.7-3.6
		c-2.5-2.6-3.7-6.2-3.7-10.7v-1.1H222.5 M195.2,76.7c1.8-4.7,4.9-7,9.4-7c4.3,0,7.1,2.3,8.5,7c0.5,2,0.8,4.3,0.7,7.1H194
		C194.1,81,194.5,78.7,195.2,76.7z"/>
	<path class="st0" d="M270.8,103C270.8,103,270.8,103,270.8,103L270.8,103l-0.9,0c-2.7,0-4.1-1.3-4.1-3.9V80.7c0-4.4-1.3-8.1-3.9-11
		c-2.6-2.9-6.2-4.3-10.7-4.3c-5.9,0-10.5,2.8-13.8,8.5v-7.2h0c0-2.3-1.9-4.2-4.2-4.2c-2.3,0-4.2,1.9-4.2,4.2h0V99
		c0,2.6-1.4,3.9-4.1,3.9h-0.8c0,0,0,0-0.1,0c-1,0-1.7,0.8-1.7,1.7c0,1,0.8,1.7,1.7,1.7v0h13.3v-22c0-4.3,1.1-7.8,3.4-10.3
		c2.1-2.4,4.8-3.6,8-3.6c2.6,0,4.7,0.8,6.3,2.4c1.6,1.6,2.4,3.7,2.4,6.5v27.2h13.3c0,0,0,0,0.1,0c1,0,1.7-0.8,1.7-1.7
		S271.8,103,270.8,103"/>
	<path class="st0" d="M91.9,102.1L91.9,102.1l-0.6,0c-2.9,0-4.4-0.8-4.4-2.4V66.8c0-0.1,0-0.2,0-0.2c0-2.3-1.8-4.1-4.1-4.1
		c-2.3,0-4.1,1.9-4.1,4.1v0h0v21.7c0,4.3-0.9,7.8-2.8,10.3c-2.1,2.7-5.1,4.1-9.1,4.1c-5.4,0-8.1-2.9-8.1-8.8v-27c0-0.1,0-0.1,0-0.2
		c0-2.2-1.8-4-4.1-4c-2.2,0-4,1.8-4,4h0v28c0,8.8,4.7,13.2,14.2,13.2c6.3,0,10.8-2.8,13.7-8.5h0.2v7.1h13.2c0,0,0.1,0,0.1,0
		c1.2,0,2.1-0.9,2.1-2.1S93.1,102.1,91.9,102.1"/>
	<path class="st0" d="M137.3,102.3C137.3,102.3,137.3,102.4,137.3,102.3c-3.2,0-4.7-1.4-4.7-4.2V44.9h0c0,0,0,0,0,0c0-2.2-1.8-4-4-4
		c-2.2,0-4,1.8-4,4c0,0,0,0,0,0.1v27.5h-0.2c-2.5-4.2-6.6-6.3-12.1-6.3c-5,0-9.1,1.8-12.4,5.5c-3.5,3.9-5.3,9-5.3,15.4
		c0,5.7,1.6,10.5,4.8,14.2c3.2,3.7,7.5,5.6,13.1,5.6c6.1,0,10.1-2.5,12-7.6h0.2v7.1h12.7v0l0,0c1.1,0,2-0.9,2-2
		C139.3,103.2,138.4,102.3,137.3,102.3 M114,102.8c-7,0-10.5-5.4-10.5-16.3c0-10.8,3.5-16.2,10.5-16.2c7.1,0,10.6,5.4,10.6,16.2
		C124.6,97.3,121.1,102.8,114,102.8z"/>
	<path class="st0" d="M182.5,102.3c0,0-0.1,0-0.1,0c-3.1,0-4.6-1.4-4.6-4.2V44.9h0c0,0,0,0,0,0c0-2.2-1.8-4-4-4c-2.2,0-4,1.8-4,3.9
		h0v27.6h-0.2c-2.5-4.2-6.6-6.3-12.1-6.3c-5,0-9.1,1.8-12.4,5.5c-3.5,3.9-5.3,9-5.3,15.4c0,5.7,1.6,10.5,4.8,14.2
		c3.2,3.7,7.5,5.6,13.1,5.6c6.1,0,10.1-2.5,12-7.6h0.2v7.1h12.6c0,0,0.1,0,0.1,0c1.1,0,2-0.9,2-2
		C184.5,103.2,183.6,102.3,182.5,102.3 M159.2,102.8c-7,0-10.5-5.4-10.5-16.3c0-10.8,3.5-16.2,10.5-16.2c7.1,0,10.6,5.4,10.6,16.2
		C169.8,97.3,166.2,102.8,159.2,102.8z"/>
	<path class="st1" d="M304.2,101.1c-0.1,0-0.1,0-0.1,0c-2.6,0-4.4-0.4-5.4-1.2c-0.2-0.2-0.4-0.4-0.6-0.6c0,0,0,0-0.1-0.1
		c-0.2-0.2-0.3-0.5-0.4-0.8c0,0,0-0.1,0-0.1c-0.1-0.3-0.2-0.6-0.3-1c0,0,0-0.1,0-0.1c-0.1-0.4-0.1-0.8-0.1-1.2l0,0V15.7h0v0h0
		c0-3.4-2.8-6.1-6.1-6.1c-3.4,0-6.1,2.7-6.1,6.1h0v80.4c-0.1,1.8-0.6,3.1-1.5,3.8c-1,0.8-2.8,1.2-5.4,1.2c-0.1,0-0.1,0-0.1,0
		c-1.4,0-2.5,1.1-2.5,2.5c0,1.4,1.1,2.5,2.5,2.5c0.1,0,0.2,0,0.2,0h19.2v0h6.8c0.1,0,0.2,0,0.2,0c1.4,0,2.5-1.1,2.5-2.5
		C306.7,102.2,305.6,101.1,304.2,101.1z"/>
	<g>
		<path class="st2" d="M318.2,1c-0.4,0-0.7,0.4-0.7,0.8l0,0l0.1,3.8l0.1,2l0.1,3.8c0,0.4,0.4,0.7,0.8,0.7c0.4,0,0.7-0.4,0.7-0.8h0
			l-0.1-3.8l-0.1-2l-0.1-3.8C318.9,1.3,318.6,1,318.2,1"/>
		<path class="st2" d="M187.5,25l94.9-3.5V20l-92.9,3.4l0,0C84.1,27.5,0.5,40.8,1,53.5c0.1,3,3.8,5.8,12.4,8.1
			c-5.5-2-7.9-4.2-8.6-6.5C1.7,43.7,85.4,29.4,187.5,25"/>
		<path class="st2" d="M310.8,19L310.8,19l-8.9,0.3c0,0,0,0,0,0l-2.3,0.1v1.5l5.4-0.2v0l0.5,0l1.8-0.1l3.5-0.1
			c0.4,0,0.7-0.4,0.7-0.8C311.5,19.3,311.2,19,310.8,19"/>
		<path class="st2" d="M313.5,14.4c0.3-0.3,0.3-0.8,0-1h0l-7-6.5c-0.3-0.3-0.8-0.3-1,0c-0.3,0.3-0.3,0.8,0,1l0,0l2.8,2.6l4.2,3.9
			C312.8,14.7,313.2,14.7,313.5,14.4"/>
		<path class="st2" d="M332.3,31.9c0.3-0.3,0.3-0.8,0-1h0l-4.2-3.9l-2.8-2.6c-0.3-0.3-0.8-0.3-1,0c-0.3,0.3-0.3,0.8,0,1v0L327,28
			l1.4,1.3l2.8,2.6C331.6,32.2,332,32.2,332.3,31.9"/>
		<path class="st2" d="M337.2,18.7c0-0.4-0.4-0.7-0.8-0.7v0l-9.6,0.4c-0.4,0-0.7,0.4-0.7,0.8c0,0.4,0.4,0.7,0.8,0.7v0l9.6-0.4
			C336.9,19.4,337.2,19.1,337.2,18.7"/>
		<path class="st2" d="M313.9,24.7c-0.3-0.3-0.8-0.3-1,0l0,0l-2.6,2.8l-1.3,1.4l-2.6,2.8c-0.3,0.3-0.3,0.8,0,1c0.3,0.3,0.8,0.3,1,0
			l0,0L310,30l1.3-1.4l2.6-2.8C314.2,25.5,314.2,25,313.9,24.7"/>
		<path class="st2" d="M331.3,5.9c-0.3-0.3-0.8-0.3-1,0l0,0l-2.6,2.8l-3.9,4.2c-0.3,0.3-0.3,0.8,0,1c0.3,0.3,0.8,0.3,1,0v0l2.6-2.8
			l1.3-1.4l2.6-2.8C331.7,6.6,331.6,6.2,331.3,5.9"/>
		<path class="st2" d="M319.1,26.7c-0.4,0-0.7,0.4-0.7,0.8h0l0.1,3.8l0.1,2l0.1,3.8c0,0.4,0.4,0.7,0.8,0.7c0.4,0,0.7-0.4,0.7-0.8h0
			l-0.1-3.8l-0.1-2l-0.1-3.8C319.9,27,319.5,26.6,319.1,26.7"/>
	</g>
	<path class="st1" d="M333,101L333,101l-0.1,0c-2.7,0-4.5-0.4-5.6-1.2c-1.1-0.8-1.6-2.3-1.6-4.4V47.4c0-3.4-2.7-6.1-6.1-6.1
		c-3.4,0-6.1,2.7-6.1,6.1h0v47.4c0,2.4-0.5,4.1-1.6,4.9c-0.7,0.6-1.8,0.9-3.2,1.1c0.4,0.8,0.7,1.7,0.7,2.7c0,0.9-0.2,1.7-0.6,2.5h24
		c0,0,0.1,0,0.1,0c1.4,0,2.5-1.1,2.5-2.5C335.5,102.1,334.4,101,333,101z"/>
	<path class="st1" d="M468.8,101C468.8,101,468.8,101,468.8,101c-2.3,0-4.2-0.6-5.9-1.8c-1.6-1.2-3.9-3.6-6.9-7.2l-18.1-22.5
		l9.6-7.9c5.7-4.7,11.9-7.2,18.5-7.4c0,0,0,0,0,0c1.4,0,2.5-1.1,2.5-2.5c0-1.4-1.1-2.5-2.5-2.5c0,0,0,0,0,0v0
		c-8.7,0-17.4,3.8-26,11.3c-5.8,5.3-12.2,10.8-18.9,16.5V15.5h0c0-3.3-2.7-6-6-6c-3.3,0-6,2.7-6,6c0,0.2,0,0.5,0,0.7v79.2
		c0,2-0.5,3.5-1.6,4.3c-0.3,0.2-0.6,0.4-1,0.6c0.6,0.9,1,1.9,1,3.1c0,0.9-0.3,1.8-0.7,2.6h14.2V83.6l8.3-7.2l23,29.5h16.2
		c0,0,0,0,0.1,0c1.4,0,2.5-1.1,2.5-2.5C471.3,102.1,470.2,101,468.8,101z"/>
	<path class="st1" d="M402.4,101.1C402.4,101.1,402.4,101.1,402.4,101.1L402.4,101.1l-1.3,0c-4,0-6-1.9-6-5.8V68.2
		c0-6.5-1.9-11.9-5.8-16.2c-3.8-4.3-9.1-6.4-15.7-6.4c-8.6,0-15.4,4.2-20.3,12.5V47.5h0c0,0,0,0,0,0c0-3.4-2.8-6.1-6.1-6.1
		c-3.4,0-6.1,2.8-6.1,6.1c0,0,0,0,0,0h0v47.8c0,3.1-1.3,4.9-3.9,5.5c0.5,0.8,0.8,1.8,0.8,2.8c0,0.9-0.2,1.7-0.6,2.5h16V73.6
		c0-6.4,1.7-11.5,5-15.2c3.1-3.5,7.1-5.3,11.8-5.3c3.9,0,6.9,1.2,9.3,3.5c2.3,2.3,3.5,5.5,3.5,9.5v40.1h19.6v0c0,0,0,0,0,0
		c1.4,0,2.5-1.1,2.5-2.5C404.9,102.2,403.7,101.1,402.4,101.1z"/>
	<g>
		<circle class="st3" cx="477.3" cy="51.9" r="4.3"/>
		<g>
			<path class="st0" d="M475.3,49.3h2.7c0.9,0,1.5,0.6,1.5,1.4c0,0.6-0.2,1-0.8,1.3v0c0.5,0.1,0.7,0.7,0.7,1.2c0,0.3,0,0.9,0.2,1.2
				h-1.1c-0.1-0.3-0.1-0.8-0.2-1.2c-0.1-0.5-0.3-0.8-0.8-0.8h-1.1v2h-1.1V49.3z M476.4,51.5h1.2c0.5,0,0.8-0.2,0.8-0.7
				c0-0.5-0.3-0.7-0.8-0.7h-1.2V51.5z"/>
		</g>
	</g>
</g>
</svg>
